<svg width="400" height="400" viewBox="0 0 400 400" xmlns="http://www.w3.org/2000/svg">
  <rect width="400" height="400" fill="#f8f9fa"/>
  
  <!-- T-shirt outline -->
  <path d="M120 120 L120 100 Q120 80 140 80 L160 80 L160 60 Q160 40 180 40 L220 40 Q240 40 240 60 L240 80 L260 80 Q280 80 280 100 L280 120 L320 120 L320 160 L300 160 L300 360 Q300 380 280 380 L120 380 Q100 380 100 360 L100 160 L80 160 L80 120 Z" 
        fill="#ffffff" 
        stroke="#e2e8f0" 
        stroke-width="2"/>
  
  <!-- Design on t-shirt -->
  <rect x="160" y="180" width="80" height="80" fill="#e53e3e" rx="10"/>
  <text x="200" y="230" text-anchor="middle" fill="white" font-family="Arial" font-size="28" font-weight="bold">یک</text>
  
  <!-- Persian text -->
  <text x="200" y="320" text-anchor="middle" fill="#2d3748" font-family="Arial" font-size="16" font-weight="bold">طراحی منحصر به فرد</text>
</svg>